# xmcd CD database file
#
# Track frame offsets:
#	150
#	15907
#	32227
#	56049
#	85256
#	100443
#	125652
#	149184
#	181701
#	208731
#	225908
#	253335
#	273957
#	309894
#
# Disc length: 4324 seconds
#
# Revision: 1
# Processed by: cddbd v1.5.2PL0 Copyright (c) Steve Scherf et al.
# Submitted via: CDex 1.70beta2
#
DISCID=c210e20e
DTITLE=Misc - Jazzworld
DYEAR=1994
DGENRE=Jazz
TTITLE0=I can't give you anything but love - Ella Fitzgerald
TTITLE1=I've got you under my skin - Charlie Parker
TTITLE2=The girl from Ipanema - Stan Getz
TTITLE3=Everything happens to me - Charlie Haden Quartet West
TTITLE4=And then she stopped - Dizzy Gillespie
TTITLE5=Until we love - Gabrielle Goodman
TTITLE6=Mupemo - Wolfgang Muthspiel
TTITLE7=You won't forget me - Shirley Horn and Miles Davis
TTITLE8=Millestones - Joe Henderson
TTITLE9=Lady sings the blues - Billie Holiday
TTITLE10=Chalabati blues - Randy Weston
TTITLE11=No blues - John McLaughlin
TTITLE12=Soppin' the bisquit - Roy Hargrove
TTITLE13=Is you is, or is you ain't (ma' baby) - Charles Brown
EXTD=YEAR: 1994
EXTT0=
EXTT1=
EXTT2=
EXTT3=
EXTT4=
EXTT5=
EXTT6=
EXTT7=
EXTT8=
EXTT9=
EXTT10=
EXTT11=
EXTT12=
EXTT13=
PLAYORDER=
